<svg width="12" height="12" viewBox="0 0 12 12" fill="none" xmlns="http://www.w3.org/2000/svg">
<path d="M9.28895 11.5361L9.39502 11.6421L9.50109 11.5361L11.5361 9.50108L11.6421 9.39502L11.5361 9.28895L8.46211 6.215L11.5361 3.14105L11.6421 3.03498L11.5361 2.92891L9.50109 0.893934L9.39502 0.787868L9.28895 0.893934L6.215 3.96789L3.14105 0.893934L3.03498 0.787868L2.92892 0.893934L0.893934 2.92891L0.787868 3.03498L0.893934 3.14105L3.96789 6.215L0.893934 9.28895L0.787868 9.39502L0.893934 9.50108L2.92891 11.5361L3.03498 11.6421L3.14105 11.5361L6.215 8.46211L9.28895 11.5361ZM6.10893 7.88977L3.03498 10.9637L1.46648 9.39522L4.54044 6.32127L4.6465 6.21521L4.54044 6.10914L1.46648 3.03519L3.03498 1.46669L6.10893 4.54064L6.215 4.64671L6.32107 4.54064L9.39502 1.46669L10.9635 3.03519L7.88957 6.10914L7.7835 6.21521L7.88957 6.32127L10.9635 9.39522L9.39502 10.9637L6.32107 7.88977L6.215 7.7837L6.10893 7.88977Z" fill="#222222" stroke="#222222" stroke-width="0.3"/>
</svg>
