<svg width="460" height="933" viewBox="0 0 460 933" fill="none" xmlns="http://www.w3.org/2000/svg">
<g clip-path="url(#clip0_1_2)">
<path d="M396 0H64C28.6538 0 0 28.6538 0 64V869C0 904.346 28.6538 933 64 933H396C431.346 933 460 904.346 460 869V64C460 28.6538 431.346 0 396 0Z" fill="black"/>
<path d="M400 18H60C39.5655 18 23 34.5655 23 55V877C23 897.435 39.5655 914 60 914H400C420.435 914 437 897.435 437 877V55C437 34.5655 420.435 18 400 18Z" fill="white"/>
<path d="M253.5 10H207.5C205.567 10 204 11.567 204 13.5C204 15.433 205.567 17 207.5 17H253.5C255.433 17 257 15.433 257 13.5C257 11.567 255.433 10 253.5 10Z" fill="white" fill-opacity="0.27"/>
</g>
<defs>
<clipPath id="clip0_1_2">
<rect width="460" height="933" fill="white"/>
</clipPath>
</defs>
</svg>
