<svg width="422" height="880" viewBox="0 0 422 880" fill="none" xmlns="http://www.w3.org/2000/svg">
<path d="M359 0H63C28.2061 0 0 28.2061 0 63V817C0 851.794 28.2061 880 63 880H359C393.794 880 422 851.794 422 817V63C422 28.2061 393.794 0 359 0Z" fill="black"/>
<path d="M365 49H57C34.3563 49 16 66.7038 16 88.5427V823.457C16 845.296 34.3563 863 57 863H365C387.644 863 406 845.296 406 823.457V88.5427C406 66.7038 387.644 49 365 49Z" fill="white"/>
<path d="M106 3H316V29C316 40.0457 307.046 49 296 49H126C114.954 49 106 40.0457 106 29V3Z" fill="black"/>
<path d="M223 23H178C176.343 23 175 24.3431 175 26C175 27.6569 176.343 29 178 29H223C224.657 29 226 27.6569 226 26C226 24.3431 224.657 23 223 23Z" fill="white" fill-opacity="0.91"/>
<path d="M243 29C244.657 29 246 27.6569 246 26C246 24.3431 244.657 23 243 23C241.343 23 240 24.3431 240 26C240 27.6569 241.343 29 243 29Z" fill="white" fill-opacity="0.91"/>
</svg>
