<svg width="11" height="16" viewBox="0 0 11 16" fill="none" xmlns="http://www.w3.org/2000/svg">
<path d="M2.5079 7.652H7.99986C8.0921 7.652 8.1806 7.61543 8.24582 7.55021C8.31104 7.48488 8.34772 7.39648 8.34772 7.30425V1.39102C8.34772 1.29879 8.31104 1.21039 8.24582 1.14506C8.1806 1.07984 8.0921 1.04327 7.99986 1.04327H2.5079C2.31574 1.04327 2.16003 1.19898 2.16003 1.39102V7.30424C2.16003 7.39648 2.19672 7.48487 2.26194 7.55021C2.32715 7.61542 2.41566 7.65199 2.5079 7.65199V7.652ZM2.85576 6.95639V2.85553H7.65217V6.95639H2.85576ZM2.85576 1.73901H7.65217V2.15989H2.85576V1.73901Z" fill="#222222"/>
<path d="M2.5079 14.9563H7.99986C8.0921 14.9563 8.1806 14.9198 8.24582 14.8546C8.31104 14.7892 8.34772 14.7008 8.34772 14.6086V8.69537C8.34772 8.60314 8.31104 8.51475 8.24582 8.44941C8.1806 8.38419 8.0921 8.34763 7.99986 8.34763H2.5079C2.31574 8.34763 2.16003 8.50333 2.16003 8.69537V14.6086C2.16003 14.7008 2.19672 14.7892 2.26194 14.8546C2.32715 14.9198 2.41566 14.9563 2.5079 14.9563V14.9563ZM2.85576 14.2607V10.1599H7.65217V14.2607H2.85576ZM2.85576 9.04336H7.65217V9.46424H2.85576V9.04336Z" fill="#222222"/>
<path d="M10.0868 2.98541e-06H0.347865C0.155707 2.98541e-06 0 0.15571 0 0.347749V15.6523C0 15.7445 0.0366856 15.8329 0.101903 15.8982C0.16712 15.9634 0.255628 16 0.347865 16H10.0868C10.179 16 10.2675 15.9634 10.3327 15.8982C10.3979 15.8329 10.4346 15.7445 10.4346 15.6523V0.347749C10.4346 0.255511 10.3979 0.16712 10.3327 0.101787C10.2675 0.0365693 10.179 0 10.0868 0V2.98541e-06ZM9.73902 15.3042H0.695372V0.695554H9.73902V15.3042Z" fill="#222222"/>
</svg>
