<svg width="457" height="971" viewBox="0 0 457 971" fill="none" xmlns="http://www.w3.org/2000/svg">
<g clip-path="url(#clip0_1_2)">
<path d="M413 0H44C19.6995 0 0 19.6995 0 44V927C0 951.301 19.6995 971 44 971H413C437.301 971 457 951.301 457 927V44C457 19.6995 437.301 0 413 0Z" fill="black"/>
<path d="M400 70H58C38.67 70 23 84.95 23 103.392V908.608C23 927.05 38.67 942 58 942H400C419.33 942 435 927.05 435 908.608V103.392C435 84.95 419.33 70 400 70Z" fill="white"/>
<path d="M242.5 52C242.5 59.4558 236.456 65.5 229 65.5C221.544 65.5 215.5 59.4558 215.5 52C215.5 44.5442 221.544 38.5 229 38.5C236.456 38.5 242.5 44.5442 242.5 52Z" fill="black" stroke="white"/>
</g>
<defs>
<clipPath id="clip0_1_2">
<rect width="457" height="971" fill="white"/>
</clipPath>
</defs>
</svg>
