<svg width="430" height="947" viewBox="0 0 430 947" fill="none" xmlns="http://www.w3.org/2000/svg">
<g clip-path="url(#clip0_1_7)">
<path d="M393 0H37C16.5655 0 0 16.5655 0 37V910C0 930.435 16.5655 947 37 947H393C413.435 947 430 930.435 430 910V37C430 16.5655 413.435 0 393 0Z" fill="black"/>
<path d="M387 48H43C24.2223 48 9 62.69 9 80.8109V898.189C9 916.31 24.2223 931 43 931H387C405.778 931 421 916.31 421 898.189V80.8109C421 62.69 405.778 48 387 48Z" fill="white"/>
<path d="M226.5 33C226.5 39.3513 221.351 44.5 215 44.5C208.649 44.5 203.5 39.3513 203.5 33C203.5 26.6487 208.649 21.5 215 21.5C221.351 21.5 226.5 26.6487 226.5 33Z" fill="black" stroke="white"/>
</g>
<defs>
<clipPath id="clip0_1_7">
<rect width="430" height="947" fill="white"/>
</clipPath>
</defs>
</svg>
